HIERARCHY
ROOT root
{
	OFFSET 0.000000 0.000000 0.000000
	CHANNELS 6 Xposition Yposition Zposition Zrotation Yrotation Xrotation
	JOINT lhip
	{
		OFFSET 0.058581 -0.082280 -0.017664
		CHANNELS 3 Zrotation Yrotation Xrotation
		JOINT lknee
		{
			OFFSET 0.043451 -0.386469 0.008037
			CHANNELS 3 Zrotation Yrotation Xrotation
			JOINT lankle
			{
				OFFSET -0.014790 -0.426874 -0.037428
				CHANNELS 3 Zrotation Yrotation Xrotation
				JOINT ltoe
				{
					OFFSET 0.041054 -0.060286 0.122042
					CHANNELS 3 Zrotation Yrotation Xrotation
					End Site
					{
						OFFSET 0.000000 0.000000 0.000000
					}
				}
			}
		}
	}
	JOINT rhip
	{
		OFFSET -0.060310 -0.090513 -0.013543
		CHANNELS 3 Zrotation Yrotation Xrotation
		JOINT rknee
		{
			OFFSET -0.043257 -0.383688 -0.004843
			CHANNELS 3 Zrotation Yrotation Xrotation
			JOINT rankle
			{
				OFFSET 0.019056 -0.420046 -0.034562
				CHANNELS 3 Zrotation Yrotation Xrotation
				JOINT rtoe
				{
					OFFSET -0.034840 -0.062106 0.130323
					CHANNELS 3 Zrotation Yrotation Xrotation
					End Site
					{
						OFFSET 0.000000 0.000000 0.000000
					}
				}
			}
		}
	}
	JOINT lowerback
	{
		OFFSET 0.004439 0.124404 -0.038385
		CHANNELS 3 Zrotation Yrotation Xrotation
		JOINT upperback
		{
			OFFSET 0.004488 0.137956 0.026820
			CHANNELS 3 Zrotation Yrotation Xrotation
			JOINT chest
			{
				OFFSET -0.002265 0.056032 0.002855
				CHANNELS 3 Zrotation Yrotation Xrotation
				JOINT lowerneck
				{
					OFFSET -0.013390 0.211636 -0.033468
					CHANNELS 3 Zrotation Yrotation Xrotation
					JOINT upperneck
					{
						OFFSET 0.010113 0.088937 0.050410
						CHANNELS 3 Zrotation Yrotation Xrotation
						End Site
						{
							OFFSET 0.000000 0.000000 0.000000
						}
					}
				}
				JOINT lclavicle
				{
					OFFSET 0.071702 0.114000 -0.018898
					CHANNELS 3 Zrotation Yrotation Xrotation
					JOINT lshoulder
					{
						OFFSET 0.122921 0.045205 -0.019046
						CHANNELS 3 Zrotation Yrotation Xrotation
						JOINT lelbow
						{
							OFFSET 0.255332 -0.015649 -0.022946
							CHANNELS 3 Zrotation Yrotation Xrotation
							JOINT lwrist
							{
								OFFSET 0.265709 0.012698 -0.007375
								CHANNELS 3 Zrotation Yrotation Xrotation
								End Site
								{
									OFFSET 0.000000 0.000000 0.000000
								}
							}
						}
					}
				}
				JOINT rclavicle
				{
					OFFSET -0.082954 0.112472 -0.023707
					CHANNELS 3 Zrotation Yrotation Xrotation
					JOINT rshoulder
					{
						OFFSET -0.113228 0.046853 -0.008472
						CHANNELS 3 Zrotation Yrotation Xrotation
						JOINT relbow
						{
							OFFSET -0.260127 -0.014369 -0.031269
							CHANNELS 3 Zrotation Yrotation Xrotation
							JOINT rwrist
							{
								OFFSET -0.269108 0.006794 -0.006027
								CHANNELS 3 Zrotation Yrotation Xrotation
								End Site
								{
									OFFSET 0.000000 0.000000 0.000000
								}
							}
						}
					}
				}
			}
		}
	}
}
MOTION
Frames: 16
Frame Time: 0.033333
0.031137 0.235428 0.997230 -179.682165 1.636569 96.192086 4.773934 3.037517 -0.877881 1.692680 -7.446843 -5.731977 -4.546304 10.006975 -4.886456 0.000000 -0.000000 0.000000 -2.599938 -0.492324 -3.815924 1.447866 2.834892 2.186814 4.123829 -9.339551 -5.960054 0.000000 -0.000000 0.000000 0.017482 0.149498 -1.909470 3.970248 -3.489013 0.919568 0.567197 1.450726 -9.689918 -5.646701 -1.965819 4.330075 5.159001 1.455647 -5.204426 -24.030019 1.865681 0.591952 -59.938944 -3.057722 13.392352 0.027611 6.809768 -21.383789 -2.487034 -23.163652 -34.244332 20.148603 -0.401698 2.404163 56.096302 -3.930132 6.337526 -1.448762 4.495296 -10.647249 1.404837 17.646905 -20.864078 
0.031262 0.235331 0.996932 -179.816623 1.703606 96.025222 4.855988 2.924985 -0.614450 1.705165 -7.216391 -5.917351 -4.218751 9.883558 -4.804417 0.000000 -0.000000 0.000000 -2.611987 -0.265439 -3.645937 1.490220 2.409272 2.068491 4.131111 -8.910939 -5.885110 0.000000 -0.000000 0.000000 0.065570 0.092139 -1.613542 3.906257 -3.462166 1.010183 0.691002 1.407203 -9.757847 -5.187718 -1.858155 3.744061 4.624563 1.497376 -5.025055 -24.321577 1.623734 0.417448 -59.408642 -2.398814 13.681285 0.910853 1.449431 -22.051125 -1.236240 -21.582633 -31.756065 20.562737 0.059964 2.532230 54.935184 -4.455080 8.050950 -0.857128 9.879867 -6.802381 0.338838 17.311798 -16.206490 
0.031492 0.233853 0.996683 179.896433 1.576753 96.075087 4.708563 2.940861 -0.786313 1.652067 -6.800728 -5.846271 -3.889518 9.512244 -4.902265 0.000000 -0.000000 0.000000 -2.868851 -0.414871 -4.017762 1.578767 2.023179 2.267420 4.130813 -8.072578 -5.820873 0.000000 -0.000000 0.000000 -0.122666 0.295673 -1.529611 3.860681 -3.400945 1.279787 0.819238 1.256253 -9.900492 -4.846312 -1.588916 3.092811 4.227422 1.386557 -5.047434 -24.480595 1.497171 0.015340 -58.136014 -2.291134 14.837115 1.593858 -6.094735 -21.226337 -1.248038 -21.551497 -30.248654 21.055975 0.872304 2.352270 52.815463 -4.705018 10.344997 1.176519 17.658201 -4.186607 -0.035124 17.625678 -15.678944 
0.031786 0.232496 0.996281 179.581405 1.525594 95.991959 4.676774 2.814412 -0.748698 1.562702 -6.211244 -5.880536 -3.499192 9.133346 -4.969773 0.000000 -0.000000 0.000000 -3.020026 -0.454196 -4.272617 1.627987 1.590984 2.511329 4.180807 -7.176386 -5.840563 0.000000 -0.000000 0.000000 -0.050351 0.442992 -1.376301 3.627701 -3.282035 1.564300 0.778443 1.079726 -10.120664 -4.266011 -1.419478 2.762539 3.752318 1.184573 -4.957819 -23.990280 0.965674 -0.632817 -56.974179 -2.673371 16.792600 3.761833 -15.454290 -18.368163 -1.563565 -20.237740 -26.712128 20.495194 1.783763 1.947780 51.309191 -4.034616 12.980958 3.936425 27.800752 -0.792726 -0.646974 18.169713 -16.919762 
0.031883 0.230602 0.996328 179.597693 1.441750 95.939898 4.649118 2.696602 -0.909693 1.459093 -5.686992 -5.767519 -3.188353 8.435866 -5.103942 0.000000 -0.000000 0.000000 -3.262510 -0.521774 -4.493434 1.749908 0.919681 2.665161 4.403253 -6.249822 -5.765271 0.000000 -0.000000 0.000000 -0.068088 0.485630 -1.588516 3.452050 -3.304799 2.196108 0.722466 0.893006 -10.538279 -3.637286 -1.007057 2.711641 3.430078 0.763487 -4.454544 -23.067452 0.039067 -1.328773 -55.315820 -3.899157 18.869573 6.803609 -26.580412 -13.909528 -2.150069 -19.862351 -20.892072 19.530593 2.982411 1.471560 49.654723 -2.311861 15.475129 7.074232 40.186854 3.926750 -0.588763 18.836244 -19.554455 
0.032022 0.228128 0.996598 179.684229 1.449206 95.955951 4.657835 2.447506 -1.236605 1.445012 -4.931238 -5.581316 -2.993970 7.704787 -5.212266 0.000000 -0.000000 0.000000 -3.262501 -0.538960 -4.766919 1.684908 0.289754 2.788858 4.658666 -5.513456 -5.713725 0.000000 -0.000000 0.000000 -0.055595 0.506647 -1.592244 3.327648 -3.410586 1.881761 0.679292 0.708334 -10.570624 -2.950686 -0.472447 3.352057 3.175544 0.646302 -4.206971 -20.978225 -1.118161 -2.345098 -54.003603 -6.145830 20.856926 10.715673 -38.810063 -10.176622 -2.911768 -19.783775 -17.941305 17.394218 4.640542 0.739024 48.615365 0.779422 18.252438 11.567568 53.794907 10.825054 -2.167297 19.178846 -24.314077 
0.031305 0.226571 0.997492 -179.503304 1.274875 95.960331 4.475106 1.937353 -1.553782 1.522262 -4.454924 -5.443693 -2.841655 6.663019 -5.197140 0.000000 -0.000000 0.000000 -3.580725 -1.000848 -4.543381 1.801607 -0.612688 2.407813 5.118728 -4.779634 -5.548855 0.000000 -0.000000 0.000000 -0.106868 0.408482 -2.482074 3.189015 -3.990879 2.469654 0.386502 0.459294 -10.806799 -2.033840 0.250930 4.207942 3.088345 0.181804 -3.553597 -17.984968 -2.285597 -3.436863 -52.667556 -10.135428 21.558781 15.186949 -51.535764 -7.564515 -4.894738 -20.021924 -13.487280 14.631014 6.558670 -0.404822 48.330132 5.847283 19.949981 17.172304 67.265767 18.744164 -3.162928 19.683592 -28.080032 
0.032048 0.223526 0.998730 179.954477 1.221366 96.004641 4.395015 1.839208 -1.848164 1.462443 -3.381521 -5.219609 -2.637858 6.080465 -5.051248 0.000000 -0.000000 0.000000 -3.511840 -0.446435 -5.195087 1.555691 -1.075869 2.953147 5.347105 -4.110193 -5.561273 0.000000 -0.000000 0.000000 -0.434290 0.614499 -2.098585 3.219242 -3.770687 1.428738 0.305777 0.438594 -11.162104 -1.276688 0.820164 5.478885 3.080992 -0.151972 -2.514373 -14.294383 -3.979891 -4.875727 -51.111610 -15.036193 22.428282 20.713482 -61.743802 -7.607552 -5.372288 -19.690469 -12.400145 11.712418 8.934748 -1.985513 48.098950 13.019822 21.242006 24.046693 78.734830 27.267906 -5.223690 19.714086 -32.431950 
0.032394 0.222759 0.999997 179.785875 1.218910 95.963705 4.386370 1.623751 -1.852837 1.516974 -2.690185 -5.169592 -2.443399 5.476244 -5.021906 0.000000 -0.000000 0.000000 -3.358455 -0.190580 -5.309720 1.310183 -1.457603 3.100956 5.608371 -3.606158 -5.495298 0.000000 -0.000000 0.000000 -0.927861 0.783358 -1.917715 3.354570 -3.895932 0.492170 0.569255 0.349390 -11.482746 -0.847057 1.431970 6.615018 3.255702 -0.212180 -1.425414 -10.460608 -7.084495 -6.093590 -49.031510 -19.992407 22.284091 29.598373 -68.723527 -13.525882 -4.900665 -20.099842 -12.352770 8.906376 12.459563 -3.666922 46.682370 21.137289 20.871348 24.778630 87.531359 29.839171 -6.894487 20.080355 -33.529796 
0.032332 0.222512 1.001444 179.849067 1.173554 95.948546 4.321706 1.511805 -1.987495 1.471637 -2.223672 -5.001361 -2.312324 5.229880 -4.967539 0.000000 -0.000000 0.000000 -3.278037 -0.142580 -5.343886 1.144881 -1.494385 3.170624 5.833769 -3.515199 -5.436584 0.000000 -0.000000 0.000000 -1.251822 0.831783 -2.351667 3.387786 -4.405997 0.511077 0.787023 0.515363 -11.733473 -0.842411 1.901972 7.327283 3.606020 -0.439074 -0.822753 -6.492953 -10.682726 -7.182019 -45.331163 -24.627892 20.761748 42.069864 -73.689119 -23.132060 -5.127019 -19.394268 -11.561849 5.912395 16.918842 -4.797968 43.278652 29.380011 18.503949 -124.780695 85.579587 -119.423494 -8.476236 19.355815 -34.503097 
0.031899 0.223208 1.002613 179.980550 1.214762 95.921876 4.330645 1.439392 -2.026084 1.536157 -2.193390 -4.887142 -2.401834 5.137040 -4.907885 0.000000 -0.000000 0.000000 -3.099534 -0.166817 -5.254191 1.003770 -1.237948 3.102671 6.010572 -3.891072 -5.324110 0.000000 -0.000000 0.000000 -1.384183 0.868763 -2.413587 3.319242 -4.693461 0.010607 0.935929 0.891614 -11.755205 -0.893065 1.884595 7.746544 4.032816 -0.654412 -0.455229 -1.850877 -13.960355 -8.193532 -42.017045 -29.042879 19.189535 52.798755 -75.464857 -32.087623 -4.214279 -19.924842 -14.173114 1.684226 20.245069 -6.548067 39.001151 35.849278 15.139096 -122.550902 80.875250 -115.999902 -9.361807 18.337142 -37.406783 
0.031305 0.224589 1.003310 -179.779767 1.272778 95.974014 4.377320 1.412567 -2.169018 1.595668 -2.238642 -4.789312 -2.567960 5.008091 -4.763553 0.000000 -0.000000 0.000000 -2.892072 -0.292514 -5.212847 0.882134 -0.907144 3.025992 6.216776 -4.384346 -5.273216 0.000000 -0.000000 0.000000 -1.220001 0.900332 -1.588423 2.987247 -4.758756 -1.830306 1.145226 1.105313 -11.577556 -0.708336 1.925439 8.041360 4.080721 -0.876608 -0.228767 2.718770 -16.183385 -9.629037 -40.236745 -32.218543 18.287421 60.852373 -75.866997 -38.838590 -2.972953 -19.894065 -15.674016 -3.136408 22.345710 -8.504374 34.960997 40.270012 11.739672 -117.748754 77.544114 -110.799405 -11.186850 17.136014 -38.869511 
0.030971 0.226031 1.003958 -179.563806 1.295149 95.999623 4.415412 1.470633 -2.227591 1.528919 -2.401550 -4.627359 -2.589918 5.147700 -4.819078 0.000000 -0.000000 0.000000 -2.756900 -0.422811 -5.178358 0.814754 -0.614270 3.067527 6.232417 -4.811174 -5.298137 0.000000 -0.000000 0.000000 -1.117495 0.878122 -1.257869 2.741891 -4.958065 -2.862826 1.416178 0.981786 -11.471321 -0.901373 1.833568 8.445773 4.102059 -0.587201 -0.230709 5.712603 -17.628460 -10.695271 -37.929541 -33.964034 16.452339 68.016333 -75.865425 -46.286124 -2.688990 -19.463650 -16.674938 -6.883168 23.561732 -10.065533 30.131688 43.712725 7.878884 -112.973770 76.500478 -106.741404 -11.299780 16.694262 -40.251545 
0.030577 0.227316 1.004293 -179.362944 1.344282 95.956220 4.473923 1.331252 -2.120002 1.628823 -2.633855 -4.675593 -2.862704 5.087341 -4.810134 0.000000 -0.000000 0.000000 -2.667137 -0.511716 -5.008394 0.791277 -0.481868 3.025360 6.169996 -5.077463 -5.296055 0.000000 -0.000000 0.000000 -0.926123 0.815988 -1.040921 2.617983 -5.018289 -3.958365 1.463160 0.965213 -10.988141 -1.401412 1.525821 8.997731 4.275816 -0.178069 -0.533027 7.521493 -17.815706 -11.564408 -36.855185 -35.747685 15.642167 68.539703 -75.476228 -47.774280 -1.332577 -19.617678 -18.521341 -9.366996 23.327186 -11.476495 26.992604 46.105121 5.301317 -109.013549 76.604821 -103.414676 -11.301187 16.703695 -40.463833 
0.030296 0.228434 1.004224 -179.337230 1.354816 95.912873 4.493402 1.412403 -1.992104 1.530003 -2.767811 -4.726688 -2.999827 5.264869 -4.898966 0.000000 -0.000000 0.000000 -2.641869 -0.597643 -4.882158 0.779214 -0.336370 3.026276 6.139323 -5.174147 -5.380004 0.000000 -0.000000 0.000000 -0.816099 0.698617 -1.158576 2.481124 -5.112471 -4.343330 1.379187 0.907055 -10.912434 -1.064410 1.286522 9.384837 4.530053 0.288040 -0.011041 7.315990 -17.812005 -12.142322 -35.687789 -36.815199 14.583161 67.922075 -75.488636 -46.782391 -1.961458 -19.493181 -17.658130 -10.173699 23.012143 -11.864596 25.008958 47.451085 3.879288 -106.433818 77.140665 -101.305171 -10.527064 16.719101 -41.476616 
0.030114 0.228818 1.003836 -179.342130 1.335132 95.849598 4.485351 1.313630 -1.852312 1.505876 -2.877986 -4.780991 -2.907863 5.362598 -5.106847 0.000000 -0.000000 0.000000 -2.683767 -0.506556 -4.789870 0.802449 -0.433610 3.049177 6.026622 -5.130619 -5.426268 0.000000 -0.000000 0.000000 -1.170174 0.654830 -1.387871 2.670472 -5.179842 -4.261172 1.464010 0.937021 -10.962160 -1.237530 1.012364 9.747746 4.866707 0.693427 0.308179 6.666043 -17.416860 -12.296596 -35.119608 -37.782939 14.316022 66.295530 -75.794986 -46.133493 -2.501013 -19.327264 -18.049487 -9.505288 22.565045 -11.940122 24.410082 48.015369 3.807101 -105.065780 78.235039 -100.437481 -9.761850 17.206427 -41.216056 
